/* XPM */
static char * application_xpm[] = {
"21 21 7 1",
" 	c None",
".	c #848284",
"+	c #000000",
"@	c #000084",
"#	c #C6C3C6",
"$	c #FFFFFF",
"%	c #FFFF00",
"                     ",
"                     ",
"    .............+   ",
"    .@@@@@@@@@@@#+   ",
"    .@@@@@@@@@@@#+   ",
"    .$$$$$$$$$$$#+   ",
"  ........$$$$$$#+   ",
"  .%$%$%$.$$$$$$#+   ",
"  .$.......$$$$$#+   ",
"  .%.%$%$%#$$$$$#+   ",
"  .$.$@@@@#$$$$$#+   ",
"  .%.%$%$%#$$$$$#+   ",
"  .$.$@@@@#######+   ",
"  .%.%$%$%#+++++++   ",
"  ++.$@@@@#+         ",
"    .######+         ",
"    ++++++++         ",
"                     ",
"                     ",
"                     ",
"                     "};
