/* XPM */
static char * D:\Python\wxglade\wxglade_dev_master\icons\button_sizer_xpm[] = {
"21 21 14 1",
" 	c None",
".	c #FFFFFF",
"+	c #000000",
"@	c #D8D8D8",
"#	c #D7D7D7",
"$	c #7A7A7A",
"%	c #0D0D0D",
"&	c #727272",
"*	c #020202",
"=	c #060606",
"-	c #010101",
";	c #737373",
">	c #050505",
",	c #040404",
"....................+",
".@#@@@#@@@@@#@@@#@@$+",
".@.................$%",
".@.................$+",
".@.................$+",
".@.................$+",
".@.................$+",
".@.................$+",
".@.................$+",
".@.................$+",
".@.................$+",
".@#@@@#@@@@@#@@@#@@$+",
".@$$&$$$$$$$$$$$$$$$*",
".@..........*.......+",
".@...@#@##@$+@@#@@@$=",
".@...@@@@@@$+@@@@@@$*",
".@...@@@@@@$+@@@@@@$+",
".@...@@@@@@$+@@@@@@$-",
".@...@@@@@@$*@@@@@@$+",
".@...$$$$$$$*$$$$$$$+",
";;;;;+=+==+>++,+**+,+"};
