/* XPM */
static char * calendar_ctrl_xpm[] = {
"21 21 115 2",
"  	c None",
". 	c #D4D4D3",
"+ 	c #DFDFDE",
"@ 	c #E0DFDE",
"# 	c #DFDEDD",
"$ 	c #E2E2E1",
"% 	c #D7D7D7",
"& 	c #DADADC",
"* 	c #D8D7D5",
"= 	c #D9D8D5",
"- 	c #D6D5D4",
"; 	c #D2D1D0",
"> 	c #E1E1E0",
", 	c #CACAC8",
"' 	c #D7D8D8",
") 	c #CFCFCF",
"! 	c #BFBFBF",
"~ 	c #C6C6C6",
"{ 	c #C1C1C1",
"] 	c #FEFEFE",
"^ 	c #D5D6DA",
"/ 	c #C1C3C8",
"( 	c #D4D3D2",
"_ 	c #D3D3D3",
": 	c #D4D4D4",
"< 	c #C5C5C5",
"[ 	c #FFFFFF",
"} 	c #EEEEEF",
"| 	c #D3D3D2",
"1 	c #D5D4D2",
"2 	c #D7D6D4",
"3 	c #CDCCCB",
"4 	c #CBCBCA",
"5 	c #D0CFCD",
"6 	c #D3D2CF",
"7 	c #D7D6D5",
"8 	c #DBDAD8",
"9 	c #A9A9C8",
"0 	c #9191D0",
"a 	c #A0A0CA",
"b 	c #9C9CCC",
"c 	c #8E8ED1",
"d 	c #A0A0CB",
"e 	c #A7A7C8",
"f 	c #9999CD",
"g 	c #A4A4C9",
"h 	c #9494CE",
"i 	c #8C8CD1",
"j 	c #9898CD",
"k 	c #9090D0",
"l 	c #AFAFC6",
"m 	c #9A9ACC",
"n 	c #C0C0C0",
"o 	c #9A9ACD",
"p 	c #9191CF",
"q 	c #B0AFC8",
"r 	c #E0E0E0",
"s 	c #E0DBDB",
"t 	c #D5D5D5",
"u 	c #D6D6D6",
"v 	c #DADADA",
"w 	c #E0D3D3",
"x 	c #DFDFDF",
"y 	c #FFE8E8",
"z 	c #E2E2E2",
"A 	c #DDDDDD",
"B 	c #FFEDED",
"C 	c #FCFCFB",
"D 	c #FFECEC",
"E 	c #EBEBEB",
"F 	c #FCFCFC",
"G 	c #E5E5E5",
"H 	c #F8F8F8",
"I 	c #FAFAFA",
"J 	c #F9F9F9",
"K 	c #E6E6E6",
"L 	c #FDFDFD",
"M 	c #F4F4F4",
"N 	c #EAEAEA",
"O 	c #FFF0F0",
"P 	c #FFEFEF",
"Q 	c #FFDFDF",
"R 	c #F5F5F5",
"S 	c #DEDEDE",
"T 	c #FFF3F3",
"U 	c #FFE1E1",
"V 	c #E5E9ED",
"W 	c #758CA0",
"X 	c #CED6DD",
"Y 	c #F3F3F3",
"Z 	c #F7F7F7",
"` 	c #F6F6F6",
" .	c #D2D2D2",
"..	c #FFE0E0",
"+.	c #ECEFF2",
"@.	c #91A4B3",
"#.	c #DAE0E5",
"$.	c #EEEEEE",
"%.	c #F1F1F1",
"&.	c #FBFBFB",
"*.	c #F2F2F2",
"=.	c #FFF1F1",
"-.	c #FFF5F5",
";.	c #FFFDFD",
">.	c #FFDBDB",
",.	c #CECECE",
"'.	c #CDCDCD",
").	c #FFEEEE",
"!.	c #FFC8C8",
"~.	c #FFDDDD",
"{.	c #FFF6F6",
"].	c #FFFCFC",
"^.	c #FFD1D1",
"/.	c #D1D1D1",
"(.	c #D0D0D0",
". + @ # $ $ % & * = - ; - $ $ $ $ $ $ > , ",
"' ) ! ~ { ] ^ / ( = _ : < [ [ [ [ [ [ } | ",
"1 2 2 2 2 2 3 4 5 6 2 2 2 2 2 2 2 2 2 7 8 ",
"9 0 a b c d e f g h i j e k l e m n o p q ",
"r s r r t r r u r r v r r _ r r u r r w x ",
"[ y [ [ z [ [ x [ [ u [ [ A [ [ u [ [ B C ",
"[ D [ [ E [ F G H I G [ J K L M N [ O P C ",
"[ Q [ [ x [ [ z R [ K [ [ S ] J r [ T U C ",
"V W X L u Y F x Z I : J J ) F `  .[ T ..C ",
"+.@.#.[ $.H [ %.[ [ N &.[ N ] *.N [ =.-.C ",
";.>.P &.% $.H ,.$.` '.` M < F %.u [ ).!.C ",
";.~.{.I z I H E ] I *.[ H M [ Z J [ {.-.C ",
"].^.y J /.$.H (.[ [ [ [ [ [ [ [ [ [ [ [ C ",
"[ [ [ [ [ [ [ [ [ [ [ [ [ [ [ [ [ [ [ [ C ",
"                                          ",
"                                          ",
"                                          ",
"                                          ",
"                                          ",
"                                          ",
"                                          "};
