/* XPM */
static char * datepicker_ctrl_xpm[] = {
"21 21 71 1",
" 	c None",
".	c #AABBCC",
"+	c #BFCBD8",
"@	c #ADBDCE",
"#	c #D3D4D9",
"$	c #D4D6DA",
"%	c #C8C9CD",
"&	c #BFCCD8",
"*	c #D1D1D1",
"=	c #DFDFDF",
"-	c #C8C8C8",
";	c #E9E9E9",
">	c #E2E2E2",
",	c #D5D5D5",
"'	c #EAEAEA",
")	c #C6C6C6",
"!	c #D7D7D7",
"~	c #D3D3D3",
"{	c #D4D4D4",
"]	c #DBDBDB",
"^	c #CECECE",
"/	c #9AABBC",
"(	c #E2E4E9",
"_	c #E1E2E8",
":	c #CDCFD3",
"<	c #F8F8F8",
"[	c #C1C1C1",
"}	c #D9D9D9",
"|	c #BFBFBF",
"1	c #CCCCCC",
"2	c #B9B9B9",
"3	c #C4C4C4",
"4	c #CDCDCD",
"5	c #CBCBCB",
"6	c #ADBECF",
"7	c #DFE0E5",
"8	c #B9BABB",
"9	c #99999A",
"0	c #E5E6E9",
"a	c #CACBD0",
"b	c #B1B1B1",
"c	c #BBBBBB",
"d	c #A5A5A5",
"e	c #C9C9C9",
"f	c #B8B8B8",
"g	c #C7C7C7",
"h	c #BCBCBC",
"i	c #98A9BA",
"j	c #DADCE1",
"k	c #E0E1E3",
"l	c #CBCBCC",
"m	c #E2E3E6",
"n	c #C7C8CD",
"o	c #FBFBFB",
"p	c #FAFAFA",
"q	c #FDFDFD",
"r	c #FFFFFF",
"s	c #FEFEFE",
"t	c #F9F9F9",
"u	c #FCFCFC",
"v	c #B0C1D2",
"w	c #D6D7DD",
"x	c #D4D5DB",
"y	c #C3C4CA",
"z	c #B8C8D7",
"A	c #C1D1E0",
"B	c #BCC9D5",
"C	c #C4C4C6",
"D	c #C4C4C7",
"E	c #C2C2C4",
"F	c #DCDAD5",
"                     ",
"                     ",
"                     ",
"                     ",
"                     ",
"                     ",
"                     ",
".++++++++++++++@#$$$%",
"&*=-;>,')'!~{]^/(___:",
"&<[}|121*3<415167890a",
"&b]cd<e{f))4[ghijklmn",
"&<opqrqspqptuqovwxxxy",
"zAAAAAAAAAAAAAABCDDDE",
"FFFFFFFFFFFFFFFFFFFFF",
"                     ",
"                     ",
"                     ",
"                     ",
"                     ",
"                     ",
"                     "};
