/* XPM */
static char * D:\Python\wxglade\wxglade_master\icons\grid_sizer_slot_ml_02_xpm[] = {
"21 21 19 1",
" 	c None",
".	c #FFFFFF",
"+	c #808080",
"@	c #2B2B2B",
"#	c #E3E3E3",
"$	c #757575",
"%	c #000000",
"&	c #737373",
"*	c #F0F0F0",
"=	c #D8D8D8",
"-	c #7A7A7A",
";	c #050505",
">	c #040404",
",	c #030303",
"'	c #020202",
")	c #010101",
"!	c #727272",
"~	c #747474",
"{	c #767676",
"......+......+......@",
".....#$.....#$.....#%",
".....#&.....#&.....#%",
".....#&.....#&.....#%",
".....#&.....#&.....#%",
".#####&.#####&.#####%",
"+&&&&&&+&&&&&&+&&&&&%",
".....*@......+......@",
".====-;.....#$.....#%",
".====-;.....#&.....#%",
".====-%.....#&.....#%",
".====-%.....#&.....#%",
".----->.#####&.#####%",
"@,%'%)%+&&&&&&+&&&&&%",
"......+......+......@",
".....#!.....#!.....#%",
".....#~.....#~.....#%",
".....#~.....#~.....#%",
".....#!.....#!.....#%",
".#####{.#####{.#####%",
"@%%%%%%@%%%%%%@%%%%%%"};
