/* XPM */
static char * D:\Python\wxglade\wxglade_master\icons\gridbag_sizer_xpm[] = {
"21 21 18 1",
" 	c None",
".	c #FFFFFF",
"+	c #2B2B2B",
"@	c #D8D8D8",
"#	c #7B7B7B",
"$	c #060606",
"%	c #000000",
"&	c #141414",
"*	c #FBFBFB",
"=	c #7A7A7A",
"-	c #010101",
";	c #0B0B0B",
">	c #101010",
",	c #030303",
"'	c #0E0E0E",
")	c #040404",
"!	c #020202",
"~	c #0A0A0A",
"......+......+......+",
".@@@@#$.@@@@#$.@@@@#$",
".@@@@#%.@@@@#%.@@@@#%",
".@@@@#&.@@@@#&.@@@@#&",
".@@@@#%.@@@@#%.@@@@#%",
"*=####%*=####%*=####%",
"+----%;+----%;+----%;",
".............+......+",
".@@@@@@@@@@@#>.@@@@#>",
".@@@@@@@@@@@#%.@@@@#%",
".@@@@@@@@@@@#,.@@@@#,",
".@@@@@@@@@@@#%.@@@@#%",
".############%.@@@@#%",
"+%%%%'%)%%%%'%.@@@@#%",
"......+......+.@@@@#%",
".@@@@#).@@@@#).@@@@#)",
".@@@@#!.@@@@#!.@@@@#!",
".@@@@#$.@@@@#$.@@@@#$",
".@@@@#~.@@@@#~.@@@@#~",
".#####%.#####%.#####%",
"+%%%%%)+%%%%%)+%%%%%)"};
