/* XPM */
static char *dummy[]={
"21 21 19 1",
". c None",
"b c #000000",
"c c #090909",
"g c #1b1b1b",
"p c #242424",
"m c #555555",
"o c #5c5c5c",
"i c #5d5d5d",
"a c #5f5f5f",
"k c #6f6f6f",
"n c #8a8a8a",
"q c #a5a5a5",
"f c #b4b4b4",
"e c #c4c4c4",
"d c #cfcfcf",
"j c #d0d0d0",
"# c #d7d7d7",
"h c #fdfdfd",
"l c #fefefe",
".....................",
".....................",
".....................",
".....................",
".....................",
".....................",
".#abcadabcaeabcaf....",
"...bg...bg...bg......",
"...bg...bg...bg......",
"...bg...bg...bg......",
"...bbbbbbg...bg......",
"...bg...bg...bg..hi..",
"...bg...bg...bg..jk..",
"...bg...bg...bg.lmn..",
".#abcadabcaeabcopbq..",
".....................",
".....................",
".....................",
".....................",
".....................",
"....................."};
