/* XPM */
static char * D:\Python\wxglade\wxglade_dev_08\icons\layout2_xpm[] = {
"21 21 15 1",
" 	c None",
".	c #7B7B7B",
"+	c #F2F2F2",
"@	c #00007B",
"#	c #FFFFFF",
"$	c #D6D6D6",
"%	c #000000",
"&	c #E5E5E5",
"*	c #B2B2B2",
"=	c #0000FF",
"-	c #666666",
";	c #999999",
">	c #7F7F7F",
",	c #FFFF00",
"'	c #00FF00",
"                     ",
"  ................+  ",
"  .@@###@##@@@@@$.%  ",
"  ................%  ",
"  .&&&&&&.$######.%  ",
"  .*&=%-&.#$;;;##.%  ",
"  .&&>,&&.#$#####.%  ",
"  .*&%>'&.##$;;;#.%  ",
"  .&&>,&&.#$#####.%  ",
"  .&&&&&&.##$####.%  ",
"  ................%  ",
"  .$$$$$$$$$$$$$$.%  ",
"  .$*##########$$.%  ",
"  .$$$$$$$$$$$$$$.%  ",
"  .$*##########$$.%  ",
"  .$$$$$$$$$$$$$$.%  ",
"  .$*$$$$$$$$$$$$.%  ",
"  .$$$$$$$$$$$$$$.%  ",
"  ................%  ",
"  +%%%%%%%%%%%%%%%%  ",
"                     "};
