/* XPM */
static char * D:\Python\wxglade\wxglade_dev_08\icons\layout3_xpm[] = {
"21 21 14 1",
" 	c None",
".	c #7B7B7B",
"+	c #F2F2F2",
"@	c #00007B",
"#	c #FFFFFF",
"$	c #000000",
"%	c #B2B2B2",
"&	c #E5E5E5",
"*	c #0000FF",
"=	c #666666",
"-	c #7F7F7F",
";	c #FFFF00",
">	c #D6D6D6",
",	c #999999",
"                     ",
"    ...........+     ",
"    .@@###@#@@.$     ",
"    ...........$     ",
"    .%&*$=&&&&.$     ",
"    .&&-;&&&&&.$     ",
"    ...........$     ",
"    .>########.$     ",
"    .#>,,,####.$     ",
"    .#>#######.$     ",
"    .##>,,,###.$     ",
"    .#>#######.$     ",
"    ...........$     ",
"    .>>>>>>>>>.$     ",
"    .>%#####>>.$     ",
"    .>>>>>>>>>.$     ",
"    .>%#####>>.$     ",
"    .>>>>>>>>>.$     ",
"    ...........$     ",
"    +$$$$$$$$$$$     ",
"                     "};
