/* XPM */
static char * D:\Python\wxglade\wxglade_dev_08\icons\pin_design_xpm[] = {
"21 21 56 1",
" 	c None",
".	c #AA0000",
"+	c #860000",
"@	c #800000",
"#	c #B50000",
"$	c #7B7B7B",
"%	c #9F7070",
"&	c #7A0000",
"*	c #4B0000",
"=	c #940000",
"-	c #970000",
";	c #550000",
">	c #410000",
",	c #9E6A6A",
"'	c #F2F2F2",
")	c #00007B",
"!	c #FF0000",
"~	c #CB5700",
"{	c #290000",
"]	c #F50000",
"^	c #7C0000",
"/	c #93000A",
"(	c #000000",
"_	c #00FFFF",
":	c #720100",
"<	c #A00000",
"[	c #D50000",
"}	c #430000",
"|	c #D6D6D6",
"1	c #530000",
"2	c #C80000",
"3	c #4C0000",
"4	c #FFFFFF",
"5	c #992323",
"6	c #810000",
"7	c #630000",
"8	c #A83030",
"9	c #F6E0E0",
"0	c #350000",
"a	c #700000",
"b	c #C60000",
"c	c #6A0000",
"d	c #FBE3E3",
"e	c #A32C2C",
"f	c #9E2B2B",
"g	c #756868",
"h	c #606060",
"i	c #C6C6C6",
"j	c #121212",
"k	c #111111",
"l	c #F7F7F7",
"m	c #D7D7D7",
"n	c #EDEDED",
"o	c #505050",
"p	c #F5F5F5",
"q	c #FBFBFB",
"                     ",
"     .+@#            ",
"$$$%&*=-;>,$$$$$$$$$'",
"$)!~{]!!!^/))))))))$(",
"$)_:<!!!![})))))|(|$(",
"$$$12!!!!23$$$$$$$$$(",
"$|456!!!!7844444444$(",
"$|490ab2c}d44444444$(",
"$|44de3*fg444444444$(",
"$|444444h(i44444444$(",
"$|4444444jk44444444$(",
"$|4444444l(m4444444$(",
"$|44444444no4444444$(",
"$|444444444pq444444$(",
"$|44444444444444444$(",
"$|44444444444444444$(",
"$$$$$$$$$$$$$$$$$$$$(",
"'((((((((((((((((((((",
"                     ",
"                     ",
"                     "};
