/* XPM */
static char * D:\Python\wxglade\wxglade_dev_08\icons\search_ctrl_xpm[] = {
"21 21 5 1",
" 	c None",
".	c #7B7B7B",
"+	c #FFFFFF",
"@	c #000000",
"#	c #D6D6D6",
"                     ",
"                     ",
"....................+",
".@@@@@@@@@@@@@@@@@@#+",
".@+++++++++++++++++#+",
".@+++++++++++++++@+#+",
".@++@@@++++++++++@+#+",
".@+@+++@+++++++++@+#+",
".@@+++++@++++++++@+#+",
".@@+++++@++++++++@+#+",
".@@+++++@++++++++@+#+",
".@+@+++@+++++++++@+#+",
".@++@@@@@++++++++@+#+",
".@++++++@@+++++++@+#+",
".@+++++++++++++++@+#+",
".@+++++++++++++++@+#+",
".@+++++++++++++++++#+",
".###################+",
"+++++++++++++++++++++",
"                     ",
"                     "};
