/* XPM */
static char * D:\Python\wxglade\wxglade_dev_08\icons\search_ctrl_xpm[] = {
"21 21 51 1",
" 	c None",
".	c #7B7B7B",
"+	c #FFFFFF",
"@	c #000000",
"#	c #D6D6D6",
"$	c #929292",
"%	c #252525",
"&	c #050505",
"*	c #1F1F1F",
"=	c #4F4F4F",
"-	c #1B1B1B",
";	c #8D8D8D",
">	c #B2B2B2",
",	c #989898",
"'	c #2E2E2E",
")	c #202020",
"!	c #B8B8B8",
"~	c #030303",
"{	c #EFEFEF",
"]	c #FEFEFE",
"^	c #F9F9F9",
"/	c #4B4B4B",
"(	c #757575",
"_	c #292929",
":	c #7C7C7C",
"<	c #E5E5E5",
"[	c #040404",
"}	c #060606",
"|	c #D5D5D5",
"1	c #FCFCFC",
"2	c #0F0F0F",
"3	c #808080",
"4	c #424242",
"5	c #E3E3E3",
"6	c #212121",
"7	c #919191",
"8	c #222222",
"9	c #3B3B3B",
"0	c #D3D3D3",
"a	c #B9B9B9",
"b	c #010101",
"c	c #FDFDFD",
"d	c #848484",
"e	c #070707",
"f	c #888888",
"g	c #F3F3F3",
"h	c #5A5A5A",
"i	c #CECECE",
"j	c #D2D2D2",
"k	c #959595",
"l	c #A9A9A9",
"                     ",
"                     ",
"....................+",
".@@@@@@@@@@@@@@@@@@#+",
".@+++++++++++++++++#+",
".@+++$%&*$+++++++@+#+",
".@++=-;>,')++++++@+#+",
".@+!~{]^++/(+++++@+#+",
".@+_:]+++]<[+++++@+#+",
".@+@<]+++++@+++++@+#+",
".@+}|+++1+!2+++++@+#+",
".@+34+++1567+++++@+#+",
".@++890+ab-++++++@+#+",
".@++cd}@e4f++++++@+#+",
".@++++++gh@i+++++@+#+",
".@+++++++j@/+++++@+#+",
".@++++++++kl+++++++#+",
".###################+",
"+++++++++++++++++++++",
"                     ",
"                     "};
