/* XPM */
static char * sizer_xpm[] = {
"21 21 82 1",
" 	c None",
".	c #FFFFFF",
"+	c #F9F9F9",
"@	c #FBFBFB",
"#	c #FCFCFC",
"$	c #FDFDFD",
"%	c #F1F1F1",
"&	c #0F0F0F",
"*	c #F2F2F2",
"=	c #DBDBDB",
"-	c #D5D5D5",
";	c #D9D9D9",
">	c #D3D3D3",
",	c #D4D4D4",
"'	c #CECECE",
")	c #CDCDCD",
"!	c #898989",
"~	c #030303",
"{	c #DCDCDC",
"]	c #D2D2D2",
"^	c #DFDFDF",
"/	c #D7D7D7",
"(	c #747474",
"_	c #010101",
":	c #FEFEFE",
"<	c #D6D6D6",
"[	c #D0D0D0",
"}	c #D8D8D8",
"|	c #DDDDDD",
"1	c #787878",
"2	c #0C0C0C",
"3	c #DADADA",
"4	c #DEDEDE",
"5	c #7A7A7A",
"6	c #000000",
"7	c #F5F5F5",
"8	c #6F6F6F",
"9	c #7B7B7B",
"0	c #888888",
"a	c #7C7C7C",
"b	c #838383",
"c	c #020202",
"d	c #0A0A0A",
"e	c #060606",
"f	c #F8F8F8",
"g	c #F0F0F0",
"h	c #D1D1D1",
"i	c #E0E0E0",
"j	c #E1E1E1",
"k	c #C9C9C9",
"l	c #868686",
"m	c #050505",
"n	c #F4F4F4",
"o	c #757575",
"p	c #CCCCCC",
"q	c #E7E7E7",
"r	c #C7C7C7",
"s	c #818181",
"t	c #848484",
"u	c #6C6C6C",
"v	c #828282",
"w	c #7D7D7D",
"x	c #797979",
"y	c #777777",
"z	c #808080",
"A	c #8D8D8D",
"B	c #040404",
"C	c #0B0B0B",
"D	c #070707",
"E	c #FAFAFA",
"F	c #F7F7F7",
"G	c #E2E2E2",
"H	c #CBCBCB",
"I	c #C8C8C8",
"J	c #CFCFCF",
"K	c #E4E4E4",
"L	c #EEEEEE",
"M	c #909090",
"N	c #7F7F7F",
"O	c #767676",
"P	c #737373",
"Q	c #0D0D0D",
".+@#$$$$$$$$.......%&",
"*=--;;;;;;;;>;>,'-)!~",
".{>,]]]]]]]],^/;,^>(_",
":<[/}}}}}}}}];[{-|;12",
".-]{,,,,,,,,=3'4]]>56",
"7!895555555580a9b59a6",
"c6d6________ed6666cce",
".@.+::::::::#ff....g6",
".h>i}}}}}}}}3h<j,,klm",
"n{/h////////|-,,k{[om",
"fp/;--------],//hq;a6",
"+ii[;;;;;;;;}3{|[,rs6",
"#tuv99999999wxoayzA8B",
"m6C666666666~6D~6c6_6",
".+.E.........:EfF..fB",
"*|{},,,,,,,,>3}G}<Hz6",
".HI^}}}}}}}}<|'3]3{5c",
"$],}<<<<<<<<,=p}[}31c",
"+|<J--------,{;K3/ps6",
"LMy1aaaaaaaaN5O(Pzl(B",
"66Q666666666c6ec6_666"};
