/* XPM */
static char * D:\Python\wxglade\wxglade_master\icons\sizer_slot_v_xpm[] = {
"21 21 21 1",
" 	c None",
".	c #FFFFFF",
"+	c #E3E3E3",
"@	c #9D9D9D",
"#	c #757575",
"$	c #737373",
"%	c #727272",
"&	c #747474",
"*	c #F0F0F0",
"=	c #323232",
"-	c #D8D8D8",
";	c #7A7A7A",
">	c #050505",
",	c #000000",
"'	c #040404",
")	c #0B0B0B",
"!	c #030303",
"~	c #070707",
"{	c #020202",
"]	c #010101",
"^	c #767676",
".+++++++++++++++++++@",
"...................+#",
"...................+$",
"...................+$",
"...................+$",
".+++++++++++++++++++$",
"@$$$$$$$$$$$$$$%%%&$$",
"...................*=",
".------------------;>",
".------------------;>",
".------------------;,",
".------------------;,",
".;;;;;;;;;;;;;;;;;;;'",
"=,),,,,,,,,,!,~!,{,],",
"....................@",
"...................+%",
"...................+&",
"...................+&",
"...................+%",
".+++++++++++++++++++^",
"@%$%%%%%%%%%$$$$%$%%%"};
