/* XPM */
static char * D:\Python\Sources35\wxglade\icons\sizer_h_xpm[] = {
"21 21 22 1",
" 	c None",
".	c #FFFFFF",
"+	c #020202",
"@	c #050505",
"#	c #000000",
"$	c #D8D8D8",
"%	c #7A7A7A",
"&	c #0A0A0A",
"*	c #0B0B0B",
"=	c #0D0D0D",
"-	c #D9D9D9",
";	c #010101",
">	c #D6D6D6",
",	c #060606",
"'	c #030303",
")	c #D7D7D7",
"!	c #070707",
"~	c #DADADA",
"{	c #F0F0F0",
"]	c #0F0F0F",
"^	c #0C0C0C",
"/	c #040404",
"......+......@......#",
".$$$$%#.$$$$%#.$$$$%#",
".$$$$%&.$$$$%*.$$$$%=",
".$$$$%#.$$$$%#.$$$$%#",
".-$$$%;.$$$$%#.$$>$%#",
".-$$$%;.$$$$%#.$$>$%#",
".-$$$%;.$$$$%#.$$>$%#",
".-$$$%;.$$$$%#.$$>$%#",
".-$$$%;.$$$$%#.$$>$%#",
".-$$$%;.$$$$%#.$$$$%#",
".-$$$%;.$$$$%#.$$$$%#",
".-$$$%;.$$$$%#.$$$$%#",
".$$$$%,.$$$$%'.$$$$%+",
".$$$$%&.$$$$%#.$$$$%#",
".$)$$%#.$$$$%!.$$$$%,",
".$$$$%#.$$$$%'.$~$$%+",
".$$$$%#.$$$$%#.$$$$%#",
".$$$$%#.$$$$%+.$$$$%;",
".$$$$%+.$$$$%#.$$$$%#",
"{%%%%%+{%%%%%;{%%%%%#",
"]';^##,#@@##/#/#++#/#"};
