/* XPM */
static char * D:\Python\Sources35\wxglade\icons\sizer_slot_h_xpm[] = {
"21 21 23 1",
" 	c None",
".	c #FFFFFF",
"+	c #747474",
"@	c #050505",
"#	c #727272",
"$	c #E3E3E3",
"%	c #D8D8D8",
"&	c #7A7A7A",
"*	c #000000",
"=	c #7C7C7C",
"-	c #0B0B0B",
";	c #7E7E7E",
">	c #737373",
",	c #787878",
"'	c #030303",
")	c #070707",
"!	c #020202",
"~	c #F0F0F0",
"{	c #010101",
"]	c #808080",
"^	c #757575",
"/	c #040404",
"(	c #767676",
"......+......@......#",
".....$#.%%%%&*.....$#",
".....$=.%%%%&-.....$;",
".....$#.%%%%&*.....$#",
".....$>.%%%%&*.....$#",
".....$>.%%%%&*.....$#",
".....$>.%%%%&*.....$#",
".....$>.%%%%&*.....$#",
".....$>.%%%%&*.....$#",
".....$>.%%%%&*.....$#",
".....$>.%%%%&*.....$#",
".....$>.%%%%&*.....$#",
".....$,.%%%%&'.....$+",
".....$=.%%%%&*.....$#",
".....$#.%%%%&).....$,",
".....$#.%%%%&'.....$+",
".....$#.%%%%&*.....$#",
".....$#.%%%%&!.....$>",
".....$+.%%%%&*.....$#",
".$$$$$+~&&&&&{.$$$$$#",
"]^>;##,*@@**/*(#++#(#"};
