/* XPM */
static char * D:\Python\wxglade\wxglade_master\icons\sizer_slot_h_xpm[] = {
"21 21 20 1",
" 	c None",
".	c #FFFFFF",
"+	c #9D9D9D",
"@	c #323232",
"#	c #E3E3E3",
"$	c #737373",
"%	c #D8D8D8",
"&	c #7A7A7A",
"*	c #000000",
"=	c #0B0B0B",
"-	c #727272",
";	c #030303",
">	c #747474",
",	c #070707",
"'	c #020202",
")	c #F0F0F0",
"!	c #010101",
"~	c #757575",
"{	c #050505",
"]	c #040404",
"......+......@......+",
".....#$.%%%%&*.....#$",
".....#$.%%%%&=.....#$",
".....#$.%%%%&*.....#$",
".....#$.%%%%&*.....#$",
".....#$.%%%%&*.....#$",
".....#$.%%%%&*.....#$",
".....#$.%%%%&*.....#$",
".....#$.%%%%&*.....#$",
".....#$.%%%%&*.....#-",
".....#$.%%%%&*.....#-",
".....#$.%%%%&*.....#-",
".....#$.%%%%&;.....#>",
".....#$.%%%%&*.....#$",
".....#$.%%%%&,.....#$",
".....#$.%%%%&;.....#$",
".....#-.%%%%&*.....#$",
".....#-.%%%%&'.....#$",
".....#>.%%%%&*.....#-",
".#####>)&&&&&!.#####-",
"+~$$$$$@{{**]*+-$$$$$"};
