/* XPM */
static char * slider_xpm[] = {
"21 21 14 1",
" 	c None",
".	c #7D7D7D",
"+	c #FAFAFA",
"@	c #0E0E0E",
"#	c #DCDCDC",
"$	c #DDDDDD",
"%	c #000000",
"&	c #121212",
"*	c #010101",
"=	c #040404",
"-	c #0D0D0D",
";	c #020202",
">	c #050505",
",	c #080808",
"                     ",
"                     ",
"                     ",
"                     ",
"                     ",
"                     ",
" ..................  ",
" .++++++.@#######$+  ",
" .+#####.%########+  ",
" .+#####.%########+  ",
" .+#####.&########+  ",
" .+#####.*########+  ",
" .+#####.%########+  ",
" ........=########+  ",
" .-%%;%>%,########+  ",
" ++++++++++++++++++  ",
"                     ",
"                     ",
"                     ",
"                     ",
"                     "};
