/* XPM */
static char * D:\Python\wxglade\wxglade_dev_master\icons\slot2_xpm[] = {
"21 21 9 1",
" 	c None",
".	c #EDEDED",
"+	c #808080",
"@	c #FFFFFF",
"#	c #E3E3E3",
"$	c #727272",
"%	c #747474",
"&	c #767676",
"*	c #737373",
"....................+",
".@@@@@@@@@@@@@@@@@@#$",
".@@@@@@@@@@@@@@@@@@#$",
".@@@@@@@@@@@@@@@@@@#$",
".@@@@@@@@@@@@@@@@@@#$",
".@@@@@@@@@@@@@@@@@@#$",
".@@@@@@@@@@@@@@@@@@#$",
".@@@@@@@@@@@@@@@@@@#$",
".@@@@@@@@@@@@@@@@@@#$",
".@@@@@@@@@@@@@@@@@@#$",
".@@@@@@@@@@@@@@@@@@#$",
".@@@@@@@@@@@@@@@@@@#$",
".@@@@@@@@@@@@@@@@@@#$",
".@@@@@@@@@@@@@@@@@@#$",
".@@@@@@@@@@@@@@@@@@#$",
".@@@@@@@@@@@@@@@@@@#$",
".@@@@@@@@@@@@@@@@@@#%",
".@@@@@@@@@@@@@@@@@@#%",
".@@@@@@@@@@@@@@@@@@#$",
".###################&",
"$$$$$$$$$$$$%$$%$*$$$"};
