/* XPM */
static char * D:\Python\Sources35\wxglade_dev\icons\splitter_slot_right_xpm[] = {
"21 21 25 1",
" 	c None",
".	c #FFFFFF",
"+	c #727272",
"@	c #FEFEFE",
"#	c #FBFBFB",
"$	c #FCFCFC",
"%	c #0D0D0D",
"&	c #E3E3E3",
"*	c #D6D6D6",
"=	c #7A7A7A",
"-	c #000000",
";	c #D7D7D7",
">	c #D5D5D5",
",	c #020202",
"'	c #DADADA",
")	c #F2F2F2",
"!	c #7C7C7C",
"~	c #787878",
"{	c #797979",
"]	c #D8D8D8",
"^	c #F8F8F8",
"/	c #121212",
"(	c #111111",
"_	c #090909",
":	c #080808",
"..........+......@#$%",
"$........&+.*******=-",
"@........&+@;>;*;;*=,",
"@........&+@;>;*;;*=,",
"@........&+@;>;*;;*=,",
"@........&+@;>;*;;*=,",
"@........&+@;>;*;;*=,",
"@........&+@;>;*;;*=,",
"@........&+@;>;*;;*=,",
"@........&+@;>**;;*=,",
"@........&+.****';*=,",
"@........&+)*****;*=,",
"@......!!!!!*****;*=,",
"@......!...!!***>;*=,",
"@......!$..!!*'**;*=,",
"@......!...!!*>**;*=,",
"@......!!!!!!****;*=,",
"@.......~!!!!******=,",
".........{+.******]=-",
".&&&&&&&&&+^!!!!!!!!/",
"+++++++++++-(--_:%--,"};
