/* XPM */
static char * D:\Python\Sources35\wxglade_dev\icons\splitter_slot_left_xpm[] = {
"21 21 22 1",
" 	c None",
".	c #FFFFFF",
"+	c #000000",
"@	c #FEFEFE",
"#	c #FBFBFB",
"$	c #FCFCFC",
"%	c #7A7A7A",
"&	c #D6D6D6",
"*	c #E3E3E3",
"=	c #7C7C7C",
"-	c #D7D7D7",
";	c #7D7D7D",
">	c #D3D3D3",
",	c #7E7E7E",
"'	c #161616",
")	c #F2F2F2",
"!	c #D9D9D9",
"~	c #787878",
"{	c #797979",
"]	c #020202",
"^	c #F8F8F8",
"/	c #050505",
"..........+......@#$%",
"$&&&&&&&&%+........*%",
"@&&&&&&&&=+@.......*%",
"@&&&&&&&&=+@.......*%",
"@&&&&&&&&=+@.......*%",
"@&&&&&&&&=+@.......*%",
"@&&&&&&&&=+@.......*%",
"@&&&&&&&&=+@.......*%",
"@&&&&&&&&=+@.......*%",
"@&&&&&&&&=+@.......*%",
"@&&&&&&&-;+........*%",
"@&&&&&&&>,').......*%",
"@&&&&&&=====.......*%",
"@&&&&&&=...==......*%",
"@&&&&&&=$..==......*%",
"@&&&&&&=...==......*%",
"@&&&&&&======......*%",
"@!&&&&&&~====......*%",
".&&&&&&&&{]........*%",
".=========+^********%",
"++++++++++/%%%%%%%%%%"};
