/* XPM */
static char *splitter_window_h[] = {
"21 21 28 1 0 0",
"  c #FFFFFF",
"! c #FCFCFC",
"# c #FEFEFE",
"$ c #000000",
"% c #D6D6D6",
"& c #D9D9D9",
"' c #7C7C7C",
"( c #D7D7D7",
") c #D3D3D3",
"* c #7A7A7A",
"+ c #7D7D7D",
", c #7E7E7E",
"- c #797979",
". c #161616",
"/ c #020202",
"0 c #050505",
"1 c #F2F2F2",
"2 c #F8F8F8",
"3 c #111111",
"4 c #D5D5D5",
"5 c #DADADA",
"6 c #090909",
"7 c #080808",
"8 c #0D0D0D",
"9 c #FBFBFB",
": c #D8D8D8",
"; c #121212",
"< c None",
" !################  $",
" %%%%%%%%%%%%%%%%&%'$",
" %%%%%%%%%%%%%%%%%%'$",
" %%%%%%%%%%%%%%%%%%'$",
" %%%%%%%%%%%%%%%%%%'$",
" %%%%%%%%%%%%%%%%%%'$",
" %%%%%%%%%%%%%%%%%%'$",
" %%%%%%%%%%%'''''%%'$",
" %%%%%%%%%()' ! '$%'$",
" *''''''''+,'   '$-'$",
"$$$$$$$$$$$.'   '$/$0",
"  ######## 1'''''$ 2$",
" %((((((((%%%$$$$$%'3",
" %44444444%%%%%%%%%'$",
" %(((((((%%%%%54%%%'$",
" %%%%%%%%%%%%%%%%%%'6",
" %((((((((5%%4%%%%%'7",
"#%(((((((((((((((%%'8",
"9%%%%%%%%%%%%%%%%%:'$",
"!******************'$",
"8$////////////////$;/"
};
