/* XPM */
static char *splitter_window[] = {
"21 21 28 1 0 0",
"  c #FFFFFF",
"! c #000000",
"# c #FEFEFE",
"$ c #FBFBFB",
"% c #FCFCFC",
"& c #0D0D0D",
"' c #D6D6D6",
"( c #7A7A7A",
") c #7C7C7C",
"* c #D7D7D7",
"+ c #D5D5D5",
", c #020202",
"- c #7D7D7D",
". c #DADADA",
"/ c #D3D3D3",
"0 c #7E7E7E",
"1 c #161616",
"2 c #F2F2F2",
"3 c #D9D9D9",
"4 c #797979",
"5 c #D8D8D8",
"6 c #F8F8F8",
"7 c #121212",
"8 c #050505",
"9 c #111111",
": c #090909",
"; c #080808",
"< c None",
"          !      #$%&",
"%''''''''(! '''''''(!",
"#'''''''')!#*+*'**'(,",
"#'''''''')!#*+*'**'(,",
"#'''''''')!#*+*'**'(,",
"#'''''''')!#*+*'**'(,",
"#'''''''')!#*+*'**'(,",
"#'''''''')!#*+*'**'(,",
"#'''''''')!#*+*'**'(,",
"#'''''''')!#*+''**'(,",
"#'''''''*-! ''''.*'(,",
"#'''''''/012'''''*'(,",
"#'''''')))))'''''*'(,",
"#'''''')   )!'''+*'(,",
"#'''''')%  )!'.''*'(,",
"#'''''')   )!'+''*'(,",
"#'''''')))))!''''*'(,",
"#3''''''!!!!!''''''(,",
" ''''''''4, ''''''5(!",
" )))))))))!6))))))))7",
"!!!!!!!!!!8!9!!:;&!!,"
};
