/* XPM */
static char * D:\Python\Sources35\wxglade_dev\icons\splitter_slot_top_xpm[] = {
"21 21 18 1",
" 	c None",
".	c #FFFFFF",
"+	c #FEFEFE",
"@	c #FCFCFC",
"#	c #000000",
"$	c #D6D6D6",
"%	c #D9D9D9",
"&	c #7C7C7C",
"*	c #D3D3D3",
"=	c #D7D7D7",
"-	c #797979",
";	c #7D7D7D",
">	c #7A7A7A",
",	c #020202",
"'	c #F8F8F8",
")	c #727272",
"!	c #787878",
"~	c #E3E3E3",
"...++++++++++++++++@#",
".$$%$$$$$$$$$$$$$$$&#",
".$$$$$$$$$$$$$$$$$$&#",
".$$$$$$$$$$$$$$$$$$&#",
".$$$$$$$$$$$$$$$$$$&#",
".$$$$$$$$$$$$$$$$$$&#",
".$$$$$$$$$$$$$$$$$$&#",
".$$$$$$$$$$$&&&&&$$&#",
".$$$$$$$$*=$&...&&$&#",
".&-&&&&&&&;&&@..&&&>#",
".#,,,,,,,,##&...&&###",
".'..........&&&&&&+.)",
".............!&&&&.~)",
"...................~)",
"...................~)",
"...................~)",
"...................~)",
"...................~)",
"...................~)",
".~~~~~~~~~~~~~~~~~~~)",
")))))))))))))))))))))"};
