/* XPM */
static char * D:\Python\Sources35\wxglade_dev\icons\splitter_slot_bottom_xpm[] = {
"21 21 19 1",
" 	c None",
".	c #FFFFFF",
"+	c #FEFEFE",
"@	c #FCFCFC",
"#	c #727272",
"$	c #E3E3E3",
"%	c #7C7C7C",
"&	c #F8F8F8",
"*	c #000000",
"=	c #D6D6D6",
"-	c #D7D7D7",
";	c #787878",
">	c #D5D5D5",
",	c #DADADA",
"'	c #D8D8D8",
")	c #7A7A7A",
"!	c #020202",
"~	c #121212",
"{	c #0D0D0D",
".......++++++++++++@#",
"...................$#",
"...................$#",
"...................$#",
"...................$#",
"...................$#",
"...................$#",
"............%%%%%..$#",
"............%...%%.$#",
".$$$$$$$$$$$%@..%%$$#",
"############%...%%###",
".&..........%%%%%%+.*",
".==========-=;%%%%-%*",
".==========>>>>>>>>%*",
".====>,=====-------%*",
".==================%*",
".======>==,--------%*",
".===---------------%*",
".='================%*",
".%))))))))))))))))))*",
"!~*!!!!!!!!!!!!!!!!*{"};
