/* XPM */
static char * D:\Python\Sources35\wxglade_dev\icons\splitter_window_h_xpm[] = {
"21 21 29 1",
" 	c None",
".	c #FFFFFF",
"+	c #FCFCFC",
"@	c #FEFEFE",
"#	c #000000",
"$	c #D6D6D6",
"%	c #D9D9D9",
"&	c #7C7C7C",
"*	c #D7D7D7",
"=	c #D3D3D3",
"-	c #787878",
";	c #7A7A7A",
">	c #7D7D7D",
",	c #7E7E7E",
"'	c #797979",
")	c #161616",
"!	c #020202",
"~	c #050505",
"{	c #F2F2F2",
"]	c #F8F8F8",
"^	c #111111",
"/	c #D5D5D5",
"(	c #DADADA",
"_	c #090909",
":	c #080808",
"<	c #0D0D0D",
"[	c #FBFBFB",
"}	c #D8D8D8",
"|	c #121212",
".+@@@@@@@@@@@@@@@@..#",
".$$$$$$$$$$$$$$$$%$&#",
".$$$$$$$$$$$$$$$$$$&#",
".$$$$$$$$$$$$$$$$$$&#",
".$$$$$$$$$$$$$$$$$$&#",
".$$$$$$$$$$$$$$$$$$&#",
".$$$$$$$$$$$$$$$$$$&#",
".$$$$$$$$$$$&&&&&$$&#",
".$$$$$$$$$*=&.+.&-$&#",
".;&&&&&&&&>,&...&&'&#",
"###########)&...&&!#~",
"..@@@@@@@@.{&&&&&&.]#",
".$********$$$&&&&&$&^",
".$////////$$$$$$$$$&#",
".$*******$$$$$(/$$$&#",
".$$$$$$$$$$$$$$$$$$&_",
".$********($$/$$$$$&:",
"@$***************$$&<",
"[$$$$$$$$$$$$$$$$$}&#",
"+;;;;;;;;;;;;;;;;;;&#",
"<#!!!!!!!!!!!!!!!!#|!"};
