/* XPM */
static char * D:\Python\wxglade\wxglade_dev_08\icons\wrap_sizer_h_xpm[] = {
"21 21 23 1",
" 	c None",
".	c #FFFFFF",
"+	c #FBFBFB",
"@	c #040404",
"#	c #D8D8D8",
"$	c #7A7A7A",
"%	c #010101",
"&	c #7B7B7B",
"*	c #000000",
"=	c #0E0E0E",
"-	c #060606",
";	c #141414",
">	c #0B0B0B",
",	c #101010",
"'	c #030303",
")	c #020202",
"!	c #0A0A0A",
"~	c #747474",
"{	c #E3E3E3",
"]	c #727272",
"^	c #737373",
"/	c #DEE5F0",
"(	c #767676",
".....+@......@......@",
".####$%.####&*.####&*",
".####$%.####&*.####&*",
".####&%.####&*.####&*",
".####&%.####&*.####&*",
".####&%.####&*.####&*",
".####&%.####&*.####&*",
".####&%.####&*.####&*",
".####&%.####&*.####&*",
".&&&&&*.&&&&&=.&&&&&*",
"*-*;**>*,*'****@)-!*@",
"......*.............~",
".####&@............{]",
".####&-............{^",
".####&-............{]",
".####&%............{~",
".####&*............{]",
".####&*............{^",
".####&@............{]",
".&&&&&*/{{{{{{{{{{{{]",
"*!*!*=>(]~~]]~~]~~](]"};
